<svg width="22" height="20" fill="none" xmlns="http://www.w3.org/2000/svg"><path fill-rule="evenodd" clip-rule="evenodd" d="M5 1a1 1 0 011-1h10a1 1 0 011 1v1h3a2 2 0 012 2v.783a6 6 0 01-4.755 5.87l-1.537.325a1.02 1.02 0 01-.29.019 10.993 10.993 0 01-3.301 3.46l-.117.077V18h3a1 1 0 110 2H7a1 1 0 110-2h3v-3.466l-.116-.078a10.993 10.993 0 01-3.302-3.46 1.003 1.003 0 01-.29-.018l-1.537-.326A6 6 0 010 4.782V4a2 2 0 012-2h3V1zm0 3H2v.783a4 4 0 003.17 3.913l.39.082A10.992 10.992 0 015 5.314V4zm12 1.314V4h3v.783a4 4 0 01-3.17 3.913l-.39.082c.367-1.103.56-2.27.56-3.464zM7 2v3.314a9 9 0 003.996 7.48l.004.003.004-.003A9 9 0 0015 5.314V2H7z" fill="#DD1427"/></svg>