<svg width="128" height="23" fill="none" xmlns="http://www.w3.org/2000/svg"><path d="M6.5 16.18h6.9V22H.5V1h6v15.18zM27.943 22l-.72-2.7h-6.06l-.72 2.7h-6.45l6.69-21h7.02l6.69 21h-6.45zm-5.49-7.5h3.48l-1.74-6.45-1.74 6.45zM46.998 1h6v21h-4.8l-6.6-9.6V22h-6V1h4.8l6.6 9.6V1zm17.69 0c2.9 0 5.32 1.01 7.26 3.03 1.96 2 2.94 4.49 2.94 7.47 0 2.98-.98 5.48-2.94 7.5-1.94 2-4.36 3-7.26 3h-8.7V1h8.7zm0 15.18c1.22 0 2.22-.43 3-1.29.8-.88 1.2-2.01 1.2-3.39 0-1.38-.4-2.5-1.2-3.36-.78-.88-1.78-1.32-3-1.32h-2.4v9.36h2.4zM77.141 1h6v21h-6V1zm20.394 0h6v21h-4.8l-6.6-9.6V22h-6V1h4.8l6.6 9.6V1zm29.9 8.61v2.49c0 3-.97 5.48-2.91 7.44-1.92 1.96-4.45 2.94-7.59 2.94-3.28 0-5.96-1.04-8.04-3.12-2.08-2.1-3.12-4.71-3.12-7.83s1.04-5.73 3.12-7.83c2.08-2.12 4.68-3.18 7.8-3.18 1.96 0 3.75.44 5.37 1.32 1.64.88 2.93 2.07 3.87 3.57l-5.1 2.91c-.84-1.28-2.18-1.92-4.02-1.92-1.5 0-2.72.48-3.66 1.44-.92.96-1.38 2.2-1.38 3.72 0 1.44.43 2.7 1.29 3.78.86 1.06 2.19 1.59 3.99 1.59 2.08 0 3.47-.74 4.17-2.22h-4.47v-5.1h10.68z" fill="#fff"/></svg>