<svg width="416" height="180" fill="none" xmlns="http://www.w3.org/2000/svg"><path d="M12.18 125h59.78v-15.68h-43.4V82.44h35V66.76h-35V41.28h43.4V25.6H12.18V125zm135.096-70h-15.4v46.34c-2.94 6.58-8.82 11.06-15.96 11.06-9.66 0-15.12-6.86-15.12-18.06V55h-15.4v41.86c0 17.92 10.64 29.54 27.16 29.54 7.14 0 14.7-2.66 19.32-8.68V125h15.4V55zm52.641 71.4c14.56 0 26.6-7.56 32.62-19.32l-13.44-7.28c-3.36 7.14-10.22 12.32-19.18 12.32-12.46 0-21.28-9.66-21.28-22.12s8.82-22.12 21.28-22.12c8.96 0 15.82 5.18 19.18 12.32l13.44-7.28c-6.02-11.76-18.06-19.32-32.62-19.32-21 0-36.96 15.68-36.96 36.4s15.96 36.4 36.96 36.4zm46.693-1.4h15.4V22.8h-15.4V125zm43.794-82.46c5.74 0 10.36-4.62 10.36-10.36 0-5.6-4.62-10.22-10.36-10.22-5.6 0-10.22 4.62-10.22 10.22 0 5.74 4.62 10.36 10.22 10.36zm-7.7 82.46h15.4V55h-15.4v70zm66.054 1.4c8.4 0 15.54-2.8 20.44-7.98V125h15.4V22.8h-15.4v38.64c-4.9-5.04-12.04-7.84-20.44-7.84-20.72 0-34.86 16.8-34.86 36.4 0 19.6 14.14 36.4 34.86 36.4zm1.82-14c-12.32 0-20.86-10.08-20.86-22.4 0-12.32 8.54-22.4 20.86-22.4 8.96 0 14.84 4.2 18.62 9.66v25.34c-3.78 5.6-9.66 9.8-18.62 9.8zM13.628 172h2.42v-16.06h-2.42V172zm10.38.22c1.32 0 2.442-.44 3.212-1.254V172h2.42v-11h-2.42v1.012c-.77-.792-1.892-1.232-3.212-1.232-3.256 0-5.478 2.64-5.478 5.72 0 3.08 2.222 5.72 5.478 5.72zm.286-2.2c-1.936 0-3.278-1.584-3.278-3.52s1.342-3.52 3.278-3.52c1.408 0 2.332.66 2.926 1.518v3.982c-.594.88-1.518 1.54-2.926 1.54zM32.92 172h2.42v-7.282c.462-1.034 1.386-1.738 2.706-1.738 1.562 0 2.42 1.078 2.42 2.838V172h2.42v-6.578c0-2.816-1.694-4.642-4.312-4.642-1.32 0-2.464.44-3.234 1.386V161h-2.42v11zm17.77.22c1.32 0 2.442-.44 3.212-1.254V172h2.42v-16.06h-2.42v6.072c-.77-.792-1.892-1.232-3.212-1.232-3.256 0-5.477 2.64-5.477 5.72 0 3.08 2.221 5.72 5.477 5.72zm.286-2.2c-1.935 0-3.277-1.584-3.277-3.52s1.341-3.52 3.277-3.52c1.409 0 2.333.66 2.927 1.518v3.982c-.595.88-1.519 1.54-2.927 1.54zm9.838-10.978c.902 0 1.628-.726 1.628-1.628a1.62 1.62 0 00-1.628-1.606c-.88 0-1.606.726-1.606 1.606a1.62 1.62 0 001.606 1.628zM59.605 172h2.42v-11h-2.42v11zm5.671 0h2.42v-7.282c.462-1.034 1.386-1.738 2.706-1.738 1.562 0 2.42 1.078 2.42 2.838V172h2.42v-6.578c0-2.816-1.694-4.642-4.312-4.642-1.32 0-2.464.44-3.234 1.386V161h-2.42v11zm17.837 4.488c2.882 0 5.632-1.452 5.632-5.126V161h-2.42v1.012c-.77-.792-1.914-1.232-3.234-1.232-3.168 0-5.522 2.442-5.522 5.522s2.31 5.544 5.522 5.544c1.32 0 2.464-.462 3.234-1.276v.77c0 2.09-1.672 2.992-3.234 2.992-1.386 0-2.508-.462-3.41-1.386l-1.474 1.738c1.056 1.122 2.882 1.804 4.906 1.804zm.264-6.864c-1.914 0-3.322-1.43-3.322-3.322 0-1.87 1.408-3.322 3.322-3.322 1.43 0 2.354.66 2.948 1.518v3.586c-.594.88-1.518 1.54-2.948 1.54zm18.481 2.486c1.122 0 2.09-.308 2.596-.55l-.726-2.024c-.33.198-.88.396-1.562.396-1.034 0-1.716-.484-1.716-1.87v-4.906h3.366V161h-3.366v-3.19h-2.42V161h-2.728v2.156h2.728v5.302c0 2.486 1.694 3.652 3.828 3.652zm9.211.11c2.31 0 4.026-.968 5.016-2.552l-1.848-1.32c-.594.968-1.584 1.672-3.146 1.672-1.848 0-3.278-1.166-3.388-2.992h8.646c.022-.352.022-.55.022-.792 0-3.542-2.398-5.456-5.302-5.456-3.344 0-5.742 2.486-5.742 5.72 0 3.366 2.398 5.72 5.742 5.72zm-3.256-6.952c.352-1.628 1.738-2.442 3.168-2.442 1.408 0 2.684.858 2.948 2.442h-6.116zM132.872 172h2.42v-6.556c0-2.706-1.474-4.664-4.29-4.664-1.496 0-2.86.572-3.63 1.628-.726-1.034-1.848-1.628-3.168-1.628-1.122 0-2.244.396-2.926 1.254V161h-2.42v11h2.42v-7.436c.418-.946 1.298-1.562 2.376-1.562 1.496 0 2.222 1.122 2.222 2.86V172h2.42v-6.556c0-.22-.022-.462-.066-.704.418-1.034 1.298-1.738 2.442-1.738 1.496 0 2.2 1.122 2.2 2.86V172zm5.516 4.268h2.42v-5.302c.77.814 1.892 1.254 3.212 1.254 3.278 0 5.5-2.64 5.5-5.72 0-3.08-2.222-5.72-5.5-5.72-1.32 0-2.442.44-3.212 1.232V161h-2.42v15.268zm5.368-6.248c-1.43 0-2.354-.66-2.948-1.54v-3.982c.594-.858 1.518-1.518 2.948-1.518 1.936 0 3.278 1.584 3.278 3.52s-1.342 3.52-3.278 3.52zm8.253 1.98h2.42v-16.06h-2.42V172zm10.38.22c1.32 0 2.442-.44 3.212-1.254V172h2.42v-11h-2.42v1.012c-.77-.792-1.892-1.232-3.212-1.232-3.256 0-5.478 2.64-5.478 5.72 0 3.08 2.222 5.72 5.478 5.72zm.286-2.2c-1.936 0-3.278-1.584-3.278-3.52s1.342-3.52 3.278-3.52c1.408 0 2.332.66 2.926 1.518v3.982c-.594.88-1.518 1.54-2.926 1.54zm13.841 2.09c1.122 0 2.09-.308 2.596-.55l-.726-2.024c-.33.198-.88.396-1.562.396-1.034 0-1.716-.484-1.716-1.87v-4.906h3.366V161h-3.366v-3.19h-2.42V161h-2.728v2.156h2.728v5.302c0 2.486 1.694 3.652 3.828 3.652zm9.211.11c2.31 0 4.026-.968 5.016-2.552l-1.848-1.32c-.594.968-1.584 1.672-3.146 1.672-1.848 0-3.278-1.166-3.388-2.992h8.646c.022-.352.022-.55.022-.792 0-3.542-2.398-5.456-5.302-5.456-3.344 0-5.742 2.486-5.742 5.72 0 3.366 2.398 5.72 5.742 5.72zm-3.256-6.952c.352-1.628 1.738-2.442 3.168-2.442 1.408 0 2.684.858 2.948 2.442h-6.116z" fill="#DD1427"/></svg>