<svg width="274" height="128" fill="none" xmlns="http://www.w3.org/2000/svg"><path d="M7.99 81h42.432V67.752H21.91v-14.4h22.752V40.104H21.91V26.088h28.512V12.84H7.99V81zm95.403-48H90.241v31.584c-2.208 3.36-5.664 5.472-9.024 5.472-6.24 0-9.024-4.512-9.024-11.424V33H59.041v27.84c0 12.672 7.104 21.216 19.392 21.216 4.128 0 8.736-1.728 11.808-4.896V81h13.152V33zm35.03 49.056c9.984 0 18.624-5.664 22.752-13.824l-11.424-6.144c-1.92 4.512-5.952 7.68-11.328 7.68-6.912 0-12.192-5.376-12.192-12.768s5.28-12.768 12.192-12.768c5.376 0 9.408 3.168 11.328 7.68l11.424-6.144c-4.128-8.16-12.768-13.824-22.752-13.824-14.208 0-25.44 10.56-25.44 25.056s11.232 25.056 25.44 25.056zM169.586 81h13.152V10.92h-13.152V81zm32.309-53.952c4.704 0 8.448-3.744 8.448-8.352 0-4.608-3.744-8.352-8.448-8.352-4.512 0-8.352 3.744-8.352 8.352 0 4.608 3.84 8.352 8.352 8.352zM195.367 81h13.152V33h-13.152v48zm46.422 1.056c5.28 0 9.504-1.824 12.288-4.608V81h13.152V10.92h-13.152v25.536c-2.784-2.688-7.008-4.512-12.288-4.512-14.208 0-23.712 11.616-23.712 25.056 0 13.44 9.504 25.056 23.712 25.056zm1.92-12c-7.2 0-12-5.952-12-13.056 0-7.104 4.8-13.056 12-13.056 5.088 0 8.16 2.208 10.368 5.184v15.648c-2.208 3.072-5.28 5.28-10.368 5.28zM64.741 122h1.98v-13.14h-1.98V122zm8.493.18c1.08 0 1.998-.36 2.628-1.026V122h1.98v-9h-1.98v.828c-.63-.648-1.548-1.008-2.628-1.008-2.664 0-4.482 2.16-4.482 4.68 0 2.52 1.818 4.68 4.482 4.68zm.234-1.8c-1.584 0-2.682-1.296-2.682-2.88 0-1.584 1.098-2.88 2.682-2.88 1.152 0 1.908.54 2.394 1.242v3.258c-.486.72-1.242 1.26-2.394 1.26zm7.058 1.62h1.98v-5.958c.378-.846 1.134-1.422 2.214-1.422 1.278 0 1.98.882 1.98 2.322V122h1.98v-5.382c0-2.304-1.386-3.798-3.528-3.798-1.08 0-2.016.36-2.646 1.134V113h-1.98v9zm14.54.18c1.08 0 1.998-.36 2.628-1.026V122h1.98v-13.14h-1.98v4.968c-.63-.648-1.548-1.008-2.628-1.008-2.664 0-4.482 2.16-4.482 4.68 0 2.52 1.818 4.68 4.482 4.68zm.234-1.8c-1.584 0-2.682-1.296-2.682-2.88 0-1.584 1.098-2.88 2.682-2.88 1.152 0 1.908.54 2.394 1.242v3.258c-.486.72-1.242 1.26-2.394 1.26zm8.048-8.982c.738 0 1.332-.594 1.332-1.332 0-.72-.594-1.314-1.332-1.314-.72 0-1.314.594-1.314 1.314 0 .738.594 1.332 1.314 1.332zm-.99 10.602h1.98v-9h-1.98v9zm4.641 0h1.98v-5.958c.378-.846 1.134-1.422 2.214-1.422 1.278 0 1.98.882 1.98 2.322V122h1.98v-5.382c0-2.304-1.386-3.798-3.528-3.798-1.08 0-2.016.36-2.646 1.134V113h-1.98v9zm14.593 3.672c2.358 0 4.608-1.188 4.608-4.194V113h-1.98v.828c-.63-.648-1.566-1.008-2.646-1.008-2.592 0-4.518 1.998-4.518 4.518 0 2.52 1.89 4.536 4.518 4.536 1.08 0 2.016-.378 2.646-1.044v.63c0 1.71-1.368 2.448-2.646 2.448-1.134 0-2.052-.378-2.79-1.134l-1.206 1.422c.864.918 2.358 1.476 4.014 1.476zm.216-5.616c-1.566 0-2.718-1.17-2.718-2.718 0-1.53 1.152-2.718 2.718-2.718 1.17 0 1.926.54 2.412 1.242v2.934c-.486.72-1.242 1.26-2.412 1.26zm15.121 2.034c.918 0 1.71-.252 2.124-.45l-.594-1.656c-.27.162-.72.324-1.278.324-.846 0-1.404-.396-1.404-1.53v-4.014h2.754V113h-2.754v-2.61h-1.98V113h-2.232v1.764h2.232v4.338c0 2.034 1.386 2.988 3.132 2.988zm7.536.09c1.89 0 3.294-.792 4.104-2.088l-1.512-1.08c-.486.792-1.296 1.368-2.574 1.368-1.512 0-2.682-.954-2.772-2.448h7.074c.018-.288.018-.45.018-.648 0-2.898-1.962-4.464-4.338-4.464-2.736 0-4.698 2.034-4.698 4.68 0 2.754 1.962 4.68 4.698 4.68zm-2.664-5.688c.288-1.332 1.422-1.998 2.592-1.998 1.152 0 2.196.702 2.412 1.998h-5.004zM162.305 122h1.98v-5.364c0-2.214-1.206-3.816-3.51-3.816-1.224 0-2.34.468-2.97 1.332-.594-.846-1.512-1.332-2.592-1.332-.918 0-1.836.324-2.394 1.026V113h-1.98v9h1.98v-6.084c.342-.774 1.062-1.278 1.944-1.278 1.224 0 1.818.918 1.818 2.34V122h1.98v-5.364c0-.18-.018-.378-.054-.576.342-.846 1.062-1.422 1.998-1.422 1.224 0 1.8.918 1.8 2.34V122zm4.512 3.492h1.98v-4.338c.63.666 1.548 1.026 2.628 1.026 2.682 0 4.5-2.16 4.5-4.68 0-2.52-1.818-4.68-4.5-4.68-1.08 0-1.998.36-2.628 1.008V113h-1.98v12.492zm4.392-5.112c-1.17 0-1.926-.54-2.412-1.26v-3.258c.486-.702 1.242-1.242 2.412-1.242 1.584 0 2.682 1.296 2.682 2.88 0 1.584-1.098 2.88-2.682 2.88zm6.753 1.62h1.98v-13.14h-1.98V122zm8.493.18c1.08 0 1.998-.36 2.628-1.026V122h1.98v-9h-1.98v.828c-.63-.648-1.548-1.008-2.628-1.008-2.664 0-4.482 2.16-4.482 4.68 0 2.52 1.818 4.68 4.482 4.68zm.234-1.8c-1.584 0-2.682-1.296-2.682-2.88 0-1.584 1.098-2.88 2.682-2.88 1.152 0 1.908.54 2.394 1.242v3.258c-.486.72-1.242 1.26-2.394 1.26zm11.324 1.71c.918 0 1.71-.252 2.124-.45l-.594-1.656c-.27.162-.72.324-1.278.324-.846 0-1.404-.396-1.404-1.53v-4.014h2.754V113h-2.754v-2.61h-1.98V113h-2.232v1.764h2.232v4.338c0 2.034 1.386 2.988 3.132 2.988zm7.536.09c1.89 0 3.294-.792 4.104-2.088l-1.512-1.08c-.486.792-1.296 1.368-2.574 1.368-1.512 0-2.682-.954-2.772-2.448h7.074c.018-.288.018-.45.018-.648 0-2.898-1.962-4.464-4.338-4.464-2.736 0-4.698 2.034-4.698 4.68 0 2.754 1.962 4.68 4.698 4.68zm-2.664-5.688c.288-1.332 1.422-1.998 2.592-1.998 1.152 0 2.196.702 2.412 1.998h-5.004z" fill="#DD1427"/></svg>