<svg width="20" height="20" fill="none" xmlns="http://www.w3.org/2000/svg"><path d="M16.98 3.018a10.685 10.685 0 013.006 5.79.863.863 0 01-.72 1.009l-.016.003a.871.871 0 01-.994-.723 8.943 8.943 0 00-2.514-4.842 8.967 8.967 0 00-4.85-2.511.878.878 0 01-.724-1.013V.727A.88.88 0 0111.03 0c.049 0 .102.004.15.016a10.727 10.727 0 015.8 3.002z" fill="#fff"/><path fill-rule="evenodd" clip-rule="evenodd" d="M15.856 12.082c-.462-.477-1.018-.73-1.615-.73-.593 0-1.157.249-1.628.722l-1.124 1.12a2.137 2.137 0 01-.051-.027l-.052-.027-.004-.004-.046-.023a3.762 3.762 0 01-.33-.177c-1.182-.747-2.253-1.727-3.288-2.993-.43-.54-.732-1-.96-1.458.24-.229.47-.461.694-.69l.086-.086.057-.057c.039-.04.078-.08.119-.118l.172-.172c.985-.984.985-2.303 0-3.287L6.769 2.96a16.13 16.13 0 01-.372-.38l-.004-.003c-.241-.25-.503-.515-.777-.768-.458-.453-1.01-.69-1.595-.69s-1.145.24-1.615.69L.999 3.222a3.312 3.312 0 00-.981 2.103c-.103 1.253.261 2.409.544 3.168.678 1.825 1.688 3.512 3.185 5.309a19.603 19.603 0 006.519 5.096c.973.46 2.274 1 3.717 1.094h.004c.094.004.188.008.274.008 1.043 0 1.914-.376 2.601-1.119l.033-.032.004-.009v-.004a7.66 7.66 0 01.626-.645l.053-.053c.217-.204.388-.376.54-.535.462-.482.707-1.05.707-1.637 0-.596-.25-1.164-.724-1.63l-2.245-2.254zm1.084 4.202h-.184v.196c-.065.068-.133.134-.2.2l-.103.102-.09.09c-.261.25-.544.527-.805.837-.352.372-.753.54-1.293.54-.057 0-.114 0-.167-.005-1.162-.073-2.25-.53-3.067-.923a17.8 17.8 0 01-5.926-4.634C3.73 11.04 2.815 9.514 2.21 7.885c-.36-.964-.495-1.711-.438-2.413a1.53 1.53 0 01.47-1.009l1.39-1.388c.14-.13.275-.2.393-.2.143 0 .278.102.368.192l.02.02c.234.216.459.445.725.719.065.065.13.13.196.2.033.032.064.065.096.098l.096.098 1.12 1.119c.307.306.307.498 0 .804-.04.04-.081.082-.118.122l-.058.059a4.384 4.384 0 01-.17.166l-.01.008c-.359.368-.67.678-1.01.98l-.003.004a.432.432 0 01-.013.013.245.245 0 00-.036.036c-.498.513-.335 1.05-.28 1.232l.002.006.016.053.004.012c.299.723.72 1.409 1.366 2.23l.012.016.004.004c1.15 1.413 2.36 2.511 3.701 3.356.18.114.368.208.532.29l.052.026c.12.06.235.117.328.174l.012.008.009.005.004.003a1.184 1.184 0 00.605.163c.315 0 .601-.126.855-.375l1.398-1.396c.078-.078.233-.213.385-.213.155 0 .294.135.347.192l2.274 2.27c.262.254.29.458.086.715z" fill="#fff"/><path d="M10.728 5.251a4.859 4.859 0 012.646 1.372 4.885 4.885 0 011.374 2.642.871.871 0 00.994.723l.02-.004a.859.859 0 00.573-.356.892.892 0 00.151-.657 6.625 6.625 0 00-1.86-3.585 6.639 6.639 0 00-3.595-1.858.878.878 0 00-1.01.715.878.878 0 00.147.661.85.85 0 00.56.347z" fill="#fff"/></svg>